<svg width="512" height="512" viewBox="0 0 512 512" fill="none" xmlns="http://www.w3.org/2000/svg">
  <rect width="512" height="512" rx="112" fill="url(#paint0_linear)"/>
  <path d="M160 140C160 128.954 168.954 120 180 120H332C343.046 120 352 128.954 352 140V372C352 383.046 343.046 392 332 392H180C168.954 392 160 383.046 160 372V140Z" fill="white" fill-opacity="0.1" stroke="white" stroke-width="8"/>
  <rect x="192" y="160" width="128" height="12" rx="6" fill="white"/>
  <rect x="192" y="196" width="96" height="12" rx="6" fill="white" fill-opacity="0.6"/>
  <path d="M256 340C256 300 290 300 290 270C290 250 275 240 256 240C237 240 222 250 222 270C222 300 256 300 256 340Z" fill="white"/>
  <circle cx="256" cy="360" r="10" fill="white"/>
  <defs>
    <linearGradient id="paint0_linear" x1="0" y1="0" x2="512" y2="512" gradientUnits="userSpaceOnUse">
      <stop stop-color="#4F46E5"/>
      <stop offset="1" stop-color="#6366F1"/>
    </linearGradient>
  </defs>
</svg>
